<?xml version="1.0" encoding="UTF-8" standalone="no"?>
<!DOCTYPE svg PUBLIC "-//W3C//DTD SVG 1.1//EN"
 "http://www.w3.org/Graphics/SVG/1.1/DTD/svg11.dtd">
<!-- Generated by graphviz version 9.0.0 (0)
 -->
<!-- Title: snakemake_dag Pages: 1 -->
<svg width="293pt" height="188pt"
 viewBox="0.00 0.00 292.88 188.00" xmlns="http://www.w3.org/2000/svg" xmlns:xlink="http://www.w3.org/1999/xlink">
<g id="graph0" class="graph" transform="scale(1 1) rotate(0) translate(4 184)">
<title>snakemake_dag</title>
<polygon fill="white" stroke="none" points="-4,4 -4,-184 288.88,-184 288.88,4 -4,4"/>
<!-- 0 -->
<g id="node1" class="node">
<title>0</title>
<path fill="none" stroke="#d89c56" stroke-width="2" d="M167.25,-36C167.25,-36 101.75,-36 101.75,-36 95.75,-36 89.75,-30 89.75,-24 89.75,-24 89.75,-12 89.75,-12 89.75,-6 95.75,0 101.75,0 101.75,0 167.25,0 167.25,0 173.25,0 179.25,-6 179.25,-12 179.25,-12 179.25,-24 179.25,-24 179.25,-30 173.25,-36 167.25,-36"/>
<text text-anchor="middle" x="134.5" y="-14.12" font-family="sans" font-size="10.00">FINAL_TARGET</text>
</g>
<!-- 1 -->
<g id="node2" class="node">
<title>1</title>
<path fill="none" stroke="#d8bc56" stroke-width="2" d="M167.62,-108C167.62,-108 101.38,-108 101.38,-108 95.38,-108 89.38,-102 89.38,-96 89.38,-96 89.38,-84 89.38,-84 89.38,-78 95.38,-72 101.38,-72 101.38,-72 167.62,-72 167.62,-72 173.62,-72 179.62,-78 179.62,-84 179.62,-84 179.62,-96 179.62,-96 179.62,-102 173.62,-108 167.62,-108"/>
<text text-anchor="middle" x="134.5" y="-86.12" font-family="sans" font-size="10.00">render_bs4_book</text>
</g>
<!-- 1&#45;&gt;0 -->
<g id="edge1" class="edge">
<title>1&#45;&gt;0</title>
<path fill="none" stroke="grey" stroke-width="2" d="M134.5,-71.34C134.5,-64.75 134.5,-57.08 134.5,-49.67"/>
<polygon fill="grey" stroke="grey" stroke-width="2" points="138,-49.93 134.5,-39.93 131,-49.93 138,-49.93"/>
</g>
<!-- 2 -->
<g id="node3" class="node">
<title>2</title>
<path fill="none" stroke="#56d86b" stroke-width="2" d="M55,-180C55,-180 12,-180 12,-180 6,-180 0,-174 0,-168 0,-168 0,-156 0,-156 0,-150 6,-144 12,-144 12,-144 55,-144 55,-144 61,-144 67,-150 67,-156 67,-156 67,-168 67,-168 67,-174 61,-180 55,-180"/>
<text text-anchor="middle" x="33.5" y="-158.12" font-family="sans" font-size="10.00">project_tree</text>
</g>
<!-- 2&#45;&gt;1 -->
<g id="edge3" class="edge">
<title>2&#45;&gt;1</title>
<path fill="none" stroke="grey" stroke-width="2" d="M59.25,-143.15C71.12,-134.93 85.42,-125.02 98.34,-116.06"/>
<polygon fill="grey" stroke="grey" stroke-width="2" points="100.09,-119.11 106.31,-110.54 96.1,-113.36 100.09,-119.11"/>
</g>
<!-- 3 -->
<g id="node4" class="node">
<title>3</title>
<path fill="none" stroke="#56c1d8" stroke-width="2" d="M171.75,-180C171.75,-180 97.25,-180 97.25,-180 91.25,-180 85.25,-174 85.25,-168 85.25,-168 85.25,-156 85.25,-156 85.25,-150 91.25,-144 97.25,-144 97.25,-144 171.75,-144 171.75,-144 177.75,-144 183.75,-150 183.75,-156 183.75,-156 183.75,-168 183.75,-168 183.75,-174 177.75,-180 171.75,-180"/>
<text text-anchor="middle" x="134.5" y="-158.12" font-family="sans" font-size="10.00">generate_rulegraph</text>
</g>
<!-- 3&#45;&gt;1 -->
<g id="edge4" class="edge">
<title>3&#45;&gt;1</title>
<path fill="none" stroke="grey" stroke-width="2" d="M134.5,-143.34C134.5,-136.75 134.5,-129.08 134.5,-121.67"/>
<polygon fill="grey" stroke="grey" stroke-width="2" points="138,-121.93 134.5,-111.93 131,-121.93 138,-121.93"/>
</g>
<!-- 4 -->
<g id="node5" class="node">
<title>4</title>
<path fill="none" stroke="#68d856" stroke-width="2" d="M272.88,-180C272.88,-180 214.12,-180 214.12,-180 208.12,-180 202.12,-174 202.12,-168 202.12,-168 202.12,-156 202.12,-156 202.12,-150 208.12,-144 214.12,-144 214.12,-144 272.88,-144 272.88,-144 278.88,-144 284.88,-150 284.88,-156 284.88,-156 284.88,-168 284.88,-168 284.88,-174 278.88,-180 272.88,-180"/>
<text text-anchor="middle" x="243.5" y="-158.12" font-family="sans" font-size="10.00">create_barplots</text>
</g>
<!-- 4&#45;&gt;1 -->
<g id="edge2" class="edge">
<title>4&#45;&gt;1</title>
<path fill="none" stroke="grey" stroke-width="2" d="M215.71,-143.15C202.77,-134.84 187.16,-124.82 173.1,-115.79"/>
<polygon fill="grey" stroke="grey" stroke-width="2" points="175.09,-112.91 164.78,-110.45 171.31,-118.8 175.09,-112.91"/>
</g>
</g>
</svg>
