<?xml version="1.0" encoding="UTF-8" standalone="no"?>
<!DOCTYPE svg PUBLIC "-//W3C//DTD SVG 1.1//EN"
 "http://www.w3.org/Graphics/SVG/1.1/DTD/svg11.dtd">
<!-- Generated by graphviz version 9.0.0 (0)
 -->
<!-- Title: snakemake_dag Pages: 1 -->
<svg width="408pt" height="188pt"
 viewBox="0.00 0.00 407.50 188.00" xmlns="http://www.w3.org/2000/svg" xmlns:xlink="http://www.w3.org/1999/xlink">
<g id="graph0" class="graph" transform="scale(1 1) rotate(0) translate(4 184)">
<title>snakemake_dag</title>
<polygon fill="white" stroke="none" points="-4,4 -4,-184 403.5,-184 403.5,4 -4,4"/>
<!-- 0 -->
<g id="node1" class="node">
<title>0</title>
<path fill="none" stroke="#567bd8" stroke-width="2" d="M230.88,-36C230.88,-36 165.38,-36 165.38,-36 159.38,-36 153.38,-30 153.38,-24 153.38,-24 153.38,-12 153.38,-12 153.38,-6 159.38,0 165.38,0 165.38,0 230.88,0 230.88,0 236.88,0 242.88,-6 242.88,-12 242.88,-12 242.88,-24 242.88,-24 242.88,-30 236.88,-36 230.88,-36"/>
<text text-anchor="middle" x="198.12" y="-14.12" font-family="sans" font-size="10.00">FINAL_TARGET</text>
</g>
<!-- 1 -->
<g id="node2" class="node">
<title>1</title>
<path fill="none" stroke="#56d86b" stroke-width="2" d="M231.25,-108C231.25,-108 165,-108 165,-108 159,-108 153,-102 153,-96 153,-96 153,-84 153,-84 153,-78 159,-72 165,-72 165,-72 231.25,-72 231.25,-72 237.25,-72 243.25,-78 243.25,-84 243.25,-84 243.25,-96 243.25,-96 243.25,-102 237.25,-108 231.25,-108"/>
<text text-anchor="middle" x="198.12" y="-86.12" font-family="sans" font-size="10.00">render_bs4_book</text>
</g>
<!-- 1&#45;&gt;0 -->
<g id="edge1" class="edge">
<title>1&#45;&gt;0</title>
<path fill="none" stroke="grey" stroke-width="2" d="M198.12,-71.34C198.12,-64.75 198.12,-57.08 198.12,-49.67"/>
<polygon fill="grey" stroke="grey" stroke-width="2" points="201.63,-49.93 198.13,-39.93 194.63,-49.93 201.63,-49.93"/>
</g>
<!-- 2 -->
<g id="node3" class="node">
<title>2</title>
<path fill="none" stroke="#d89c56" stroke-width="2" d="M84.25,-180C84.25,-180 12,-180 12,-180 6,-180 0,-174 0,-168 0,-168 0,-156 0,-156 0,-150 6,-144 12,-144 12,-144 84.25,-144 84.25,-144 90.25,-144 96.25,-150 96.25,-156 96.25,-156 96.25,-168 96.25,-168 96.25,-174 90.25,-180 84.25,-180"/>
<text text-anchor="middle" x="48.12" y="-158.12" font-family="sans" font-size="10.00">snakemake_report</text>
</g>
<!-- 2&#45;&gt;1 -->
<g id="edge3" class="edge">
<title>2&#45;&gt;1</title>
<path fill="none" stroke="grey" stroke-width="2" d="M86.36,-143.15C105.07,-134.43 127.83,-123.81 147.91,-114.43"/>
<polygon fill="grey" stroke="grey" stroke-width="2" points="149.37,-117.61 156.95,-110.21 146.41,-111.27 149.37,-117.61"/>
</g>
<!-- 3 -->
<g id="node4" class="node">
<title>3</title>
<path fill="none" stroke="#56d8d0" stroke-width="2" d="M169.62,-180C169.62,-180 126.62,-180 126.62,-180 120.62,-180 114.62,-174 114.62,-168 114.62,-168 114.62,-156 114.62,-156 114.62,-150 120.62,-144 126.62,-144 126.62,-144 169.62,-144 169.62,-144 175.62,-144 181.62,-150 181.62,-156 181.62,-156 181.62,-168 181.62,-168 181.62,-174 175.62,-180 169.62,-180"/>
<text text-anchor="middle" x="148.12" y="-158.12" font-family="sans" font-size="10.00">project_tree</text>
</g>
<!-- 3&#45;&gt;1 -->
<g id="edge4" class="edge">
<title>3&#45;&gt;1</title>
<path fill="none" stroke="grey" stroke-width="2" d="M160.74,-143.34C165.91,-136.1 172.03,-127.53 177.8,-119.45"/>
<polygon fill="grey" stroke="grey" stroke-width="2" points="180.61,-121.54 183.58,-111.37 174.92,-117.47 180.61,-121.54"/>
</g>
<!-- 4 -->
<g id="node5" class="node">
<title>4</title>
<path fill="none" stroke="#d87556" stroke-width="2" d="M286.38,-180C286.38,-180 211.88,-180 211.88,-180 205.88,-180 199.88,-174 199.88,-168 199.88,-168 199.88,-156 199.88,-156 199.88,-150 205.88,-144 211.88,-144 211.88,-144 286.38,-144 286.38,-144 292.38,-144 298.38,-150 298.38,-156 298.38,-156 298.38,-168 298.38,-168 298.38,-174 292.38,-180 286.38,-180"/>
<text text-anchor="middle" x="249.12" y="-158.12" font-family="sans" font-size="10.00">generate_rulegraph</text>
</g>
<!-- 4&#45;&gt;1 -->
<g id="edge2" class="edge">
<title>4&#45;&gt;1</title>
<path fill="none" stroke="grey" stroke-width="2" d="M236.26,-143.34C230.92,-136.01 224.6,-127.34 218.65,-119.18"/>
<polygon fill="grey" stroke="grey" stroke-width="2" points="221.67,-117.37 212.95,-111.35 216.01,-121.49 221.67,-117.37"/>
</g>
<!-- 5 -->
<g id="node6" class="node">
<title>5</title>
<path fill="none" stroke="#56c1d8" stroke-width="2" d="M387.5,-180C387.5,-180 328.75,-180 328.75,-180 322.75,-180 316.75,-174 316.75,-168 316.75,-168 316.75,-156 316.75,-156 316.75,-150 322.75,-144 328.75,-144 328.75,-144 387.5,-144 387.5,-144 393.5,-144 399.5,-150 399.5,-156 399.5,-156 399.5,-168 399.5,-168 399.5,-174 393.5,-180 387.5,-180"/>
<text text-anchor="middle" x="358.12" y="-158.12" font-family="sans" font-size="10.00">create_barplots</text>
</g>
<!-- 5&#45;&gt;1 -->
<g id="edge5" class="edge">
<title>5&#45;&gt;1</title>
<path fill="none" stroke="grey" stroke-width="2" d="M317.34,-143.15C297.1,-134.3 272.42,-123.51 250.78,-114.04"/>
<polygon fill="grey" stroke="grey" stroke-width="2" points="252.45,-110.95 241.89,-110.15 249.65,-117.36 252.45,-110.95"/>
</g>
</g>
</svg>
